<svg width="72" height="72" viewBox="0 0 72 72" fill="none" xmlns="http://www.w3.org/2000/svg">
<rect width="72" height="72" fill="#F5F5F5"/>
<g id="Homepage - 1" clip-path="url(#clip0_1_6)">
<rect width="1920" height="9954" transform="translate(-634 -2674)" fill="white"/>
<g id="Services">
<g id="Content">
<g id="2">
<g id="1">
<rect width="385" height="173" transform="translate(-283 -30)" fill="#F4F4F4"/>
<g id="Content_2">
<g id="Icon">
<circle id="Ellipse 120" cx="36" cy="36" r="36" fill="#40DDB6"/>
<g id="Icon_2">
<path id="Vector" d="M17.625 50.4375H54.375" stroke="white" stroke-width="2" stroke-linecap="round" stroke-linejoin="round"/>
<path id="Vector_2" d="M38.625 50.4375V21.5625C38.625 21.2144 38.4867 20.8806 38.2406 20.6344C37.9944 20.3883 37.6606 20.25 37.3125 20.25H21.5625C21.2144 20.25 20.8806 20.3883 20.6344 20.6344C20.3883 20.8806 20.25 21.2144 20.25 21.5625V50.4375" stroke="white" stroke-width="2" stroke-linecap="round" stroke-linejoin="round"/>
<path id="Vector_3" d="M51.75 50.4375V32.0625C51.75 31.7144 51.6117 31.3806 51.3656 31.1344C51.1194 30.8883 50.7856 30.75 50.4375 30.75H38.625" stroke="white" stroke-width="2" stroke-linecap="round" stroke-linejoin="round"/>
<path id="Vector_4" d="M25.5 26.8125H30.75" stroke="white" stroke-width="2" stroke-linecap="round" stroke-linejoin="round"/>
<path id="Vector_5" d="M28.125 37.3125H33.375" stroke="white" stroke-width="2" stroke-linecap="round" stroke-linejoin="round"/>
<path id="Vector_6" d="M25.5 43.875H30.75" stroke="white" stroke-width="2" stroke-linecap="round" stroke-linejoin="round"/>
<path id="Vector_7" d="M43.875 43.875H46.5" stroke="white" stroke-width="2" stroke-linecap="round" stroke-linejoin="round"/>
<path id="Vector_8" d="M43.875 37.3125H46.5" stroke="white" stroke-width="2" stroke-linecap="round" stroke-linejoin="round"/>
</g>
</g>
</g>
</g>
</g>
</g>
</g>
</g>
<defs>
<clipPath id="clip0_1_6">
<rect width="1920" height="9954" fill="white" transform="translate(-634 -2674)"/>
</clipPath>
</defs>
</svg>
